<svg height="512" viewBox="0 0 64 64" width="512" xmlns="http://www.w3.org/2000/svg"><path d="m61 27-10 10h-3v-23z" fill="#ee8700"/><path d="m48 7v30h-32v-30a4 4 0 0 1 4-4h24a4 4 0 0 1 4 4z" fill="#5aaae7"/><path d="m32.12 27.12a2 2 0 0 0 2.83 0l.71-.7 2.83 2.83-.71.7a5.01 5.01 0 0 1 -7.07 0l-5.66-5.66a5 5 0 0 1 0-7.07l.71-.7 2.83 2.83-.71.7a2 2 0 0 0 0 2.83z" fill="#e6e7e8"/><g fill="#ff9811"><path d="m36.36 22.88 5.66 5.66-1.41 1.41a1.008 1.008 0 0 1 -1.42 0l-.7-.7-2.83-2.83-.71-.71a1.008 1.008 0 0 1 0-1.42z"/><path d="m26.46 12.98 5.66 5.66-1.41 1.41a1.008 1.008 0 0 1 -1.42 0l-.7-.7-2.83-2.83-.71-.71a1.008 1.008 0 0 1 0-1.42z"/><path d="m38 3v2a2.006 2.006 0 0 1 -2 2h-8a2.006 2.006 0 0 1 -2-2v-2z"/></g><path d="m16 14v23h-3l-10-10z" fill="#ee8700"/><path d="m61 27v32a2.006 2.006 0 0 1 -2 2h-54a2.006 2.006 0 0 1 -2-2v-32l10 10h38z" fill="#ffa733"/><path d="m50 16v21h-2v-23z" fill="#cc7400"/></svg>