<svg xmlns="http://www.w3.org/2000/svg" xmlns:xlink="http://www.w3.org/1999/xlink" id="Layer_1" x="0" y="0" version="1.1" viewBox="0 0 512.001 512.001" xml:space="preserve" style="enable-background:new 0 0 512.001 512.001"><path style="fill:#5a4146" d="M202.068,70.705c1.692-7.541,8.387-12.9,16.115-12.9h75.633c7.728,0,14.423,5.359,16.115,12.9	l11.567,51.544h16.921l-12.534-62.668c-3.087-15.438-16.642-26.55-32.386-26.55h-75c-15.743,0-29.298,11.112-32.386,26.55	l-12.534,62.668H190.5L202.068,70.705z"/><path style="fill:#694b4b" d="M470.71,478.967H41.29c-13.682,0-24.774-11.092-24.774-24.774v-173.42h478.968v173.419	C495.484,467.875,484.392,478.967,470.71,478.967z"/><path style="fill:#5a4146" d="M66.065,346.838h379.871c18.601,0,35.727-6.256,49.548-16.673v-49.391H16.516v173.419	c0,13.682,11.092,24.774,24.774,24.774h429.42c13.682,0,24.774-11.092,24.774-24.774v-8.258H82.581	c-18.243,0-33.032-14.789-33.032-33.032V354.65c0-4.913,4.245-8.64,9.136-8.17C61.113,346.713,63.573,346.838,66.065,346.838z"/><path style="fill:#785550" d="M478.968,115.612H33.032C14.789,115.612,0,130.401,0,148.644v115.613	c0,36.486,29.578,66.065,66.065,66.065h379.871c36.486,0,66.065-29.578,66.065-66.065V148.644	C512,130.401,497.211,115.612,478.968,115.612z"/><path style="fill:#8c5f5f" d="M458.323,140.386H53.677c-6.841,0-12.387-5.546-12.387-12.387l0,0	c0-6.841,5.546-12.387,12.387-12.387h404.645c6.841,0,12.387,5.546,12.387,12.387l0,0	C470.71,134.84,465.164,140.386,458.323,140.386z"/><rect style="fill:#e1a546" width="49.548" height="363.36" x="82.58" y="115.609"/><rect style="fill:#ffc850" width="49.548" height="24.774" x="82.58" y="115.609"/><g><rect style="fill:#d28737" width="49.548" height="24.774" x="82.58" y="355.099"/><rect style="fill:#d28737" width="49.548" height="24.774" x="82.58" y="297.289"/></g><path style="fill:#ffc850" d="M132.129,363.354H82.581c-9.105,0-16.516-7.411-16.516-16.516v-41.29	c0-9.105,7.411-16.516,16.516-16.516h49.548c9.105,0,16.516,7.411,16.516,16.516v41.29	C148.645,355.943,141.234,363.354,132.129,363.354z M82.581,305.547v41.29h49.565l-0.016-41.29H82.581z"/><path style="fill:#fff082" d="M107.355,330.322c-4.565,0-8.258-3.694-8.258-8.258v-24.775c0-4.565,3.694-8.258,8.258-8.258	c4.565,0,8.258,3.694,8.258,8.258v24.774C115.613,326.628,111.919,330.322,107.355,330.322z"/><rect style="fill:#d28737" width="49.548" height="33.03" x="82.58" y="445.939"/><rect style="fill:#e1a546" width="49.548" height="363.36" x="379.87" y="115.609"/><rect style="fill:#ffc850" width="49.548" height="24.774" x="379.87" y="115.609"/><g><rect style="fill:#d28737" width="49.548" height="24.774" x="379.87" y="355.099"/><rect style="fill:#d28737" width="49.548" height="24.774" x="379.87" y="297.289"/></g><path style="fill:#ffc850" d="M429.419,363.354h-49.548c-9.105,0-16.516-7.411-16.516-16.516v-41.29	c0-9.105,7.411-16.516,16.516-16.516h49.548c9.105,0,16.516,7.411,16.516,16.516v41.29	C445.935,355.943,438.524,363.354,429.419,363.354z M379.871,305.547v41.29h49.565l-0.016-41.29H379.871z"/><path style="fill:#fff082" d="M404.645,330.322c-4.565,0-8.258-3.694-8.258-8.258v-24.775c0-4.565,3.694-8.258,8.258-8.258	s8.258,3.694,8.258,8.258v24.774C412.903,326.628,409.21,330.322,404.645,330.322z"/><rect style="fill:#d28737" width="49.548" height="33.03" x="379.87" y="445.939"/><path style="fill:#ffc850" d="M289.032,297.289h-66.065c-4.561,0-8.258-3.697-8.258-8.258v-16.516c0-4.561,3.697-8.258,8.258-8.258	h66.065c4.561,0,8.258,3.697,8.258,8.258v16.516C297.29,293.592,293.593,297.289,289.032,297.289z"/><path style="fill:#e1a546" d="M289.032,297.289h-66.065c-4.561,0-8.258-3.697-8.258-8.258l0,0c0-4.561,3.697-8.258,8.258-8.258	h66.065c4.561,0,8.258,3.697,8.258,8.258l0,0C297.29,293.592,293.593,297.289,289.032,297.289z"/></svg>