<svg id="Layer_1" height="512" viewBox="0 0 64 64" width="512" xmlns="http://www.w3.org/2000/svg" data-name="Layer 1"><path d="m58 47v-30l-25-15h-2l-25 15v30l25 15h2z" fill="#4370ff"/><path d="m18.26 39.07-7.07-7.07 7.07-7.07 2.83 2.83-4.24 4.24 4.24 4.24z"/><path d="m45.74 39.07-2.83-2.83 4.24-4.24-4.24-4.24 2.83-2.83 7.07 7.07z"/><path d="m22.57 30h18.86v4h-18.86z" transform="matrix(.707 -.707 .707 .707 -13.25 32)"/><path d="m51.44 15.39 4.56 2.74v27.74l-23.55 14.13h-.9l-23.55-14.13v-27.74l23.55-14.13h.9l15.45 9.27 2.91-2.91-17.26-10.36h-3.1l-26.45 15.87v32.26l26.45 15.87h3.1l26.45-15.87v-32.26l-5.65-3.39z"/></svg>